<svg width="35" height="35" viewBox="0 0 35 35" fill="none" xmlns="http://www.w3.org/2000/svg">
<path fill-rule="evenodd" clip-rule="evenodd" d="M17.5 35C27.165 35 35 27.165 35 17.5C35 7.83502 27.165 0 17.5 0C7.83502 0 0 7.83502 0 17.5C0 27.165 7.83502 35 17.5 35ZM28 17.5H17.9452C17.8241 17.508 17.6773 17.5128 17.5 17.5128V20.7812H23.93C23.641 21.3475 23.2763 21.8774 22.842 22.3553C21.6343 23.684 19.9748 24.515 18.1874 24.6859C16.4 24.8569 14.6131 24.3556 13.1754 23.28C11.7378 22.2043 10.7526 20.6315 10.4122 18.8685C10.0718 17.1055 10.4007 15.279 11.3345 13.7454C12.2684 12.2119 13.7403 11.0814 15.4629 10.5747C17.1854 10.0679 19.035 10.2214 20.6505 11.005C21.1678 11.2559 21.6492 11.5657 22.0867 11.9256L22.0938 11.9219L24.561 9.72873C23.825 9.05993 22.9919 8.49381 22.0825 8.05271C19.7327 6.91291 17.0424 6.68975 14.5369 7.42679C12.0313 8.16383 9.89041 9.80816 8.53204 12.0388C7.17366 14.2694 6.69534 16.9262 7.19046 19.4905C7.68557 22.0549 9.11857 24.3426 11.2097 25.9072C13.3009 27.4718 15.9 28.201 18.4999 27.9523C21.0997 27.7036 23.5135 26.4949 25.2701 24.5623C26.2706 23.4615 27.017 22.1709 27.4742 20.7812C27.8197 19.731 28 18.6242 28 17.5Z" fill="#147578"/>
</svg>
