<svg width="35" height="35" viewBox="0 0 35 35" fill="none" xmlns="http://www.w3.org/2000/svg">
<path fill-rule="evenodd" clip-rule="evenodd" d="M17.5 35C27.1646 35 35 27.1646 35 17.5C35 7.83531 27.1646 0 17.5 0C7.83531 0 0 7.83531 0 17.5C0 27.1646 7.83531 35 17.5 35ZM27.9552 26.1227V18.9074C27.9552 15.0446 25.8928 13.2457 23.1403 13.2457C20.918 13.2457 19.9264 14.469 19.3704 15.3249V13.5414H15.1862C15.2426 14.7217 15.1862 26.1228 15.1862 26.1228H19.3704V19.0963C19.3704 18.7185 19.3978 18.3454 19.509 18.0773C19.8121 17.3248 20.4991 16.5464 21.6537 16.5464C23.1693 16.5464 23.7725 17.701 23.7725 19.3917V26.1227H27.9552ZM19.3704 15.3249V15.3658H19.343C19.3467 15.359 19.3516 15.3523 19.3565 15.3456C19.3615 15.3387 19.3666 15.3318 19.3704 15.3249ZM8.44458 9.65094C8.44458 8.41712 9.37978 7.47729 10.8116 7.47729C12.2419 7.47729 13.1223 8.41718 13.1498 9.65094C13.1498 10.8589 12.2419 11.8244 10.7827 11.8244H10.7568C9.35241 11.8244 8.44458 10.8588 8.44458 9.65094ZM12.874 26.1228H8.69287V13.5414H12.874V26.1228Z" fill="#147578"/>
</svg>
