<svg width="35" height="35" viewBox="0 0 35 35" fill="none" xmlns="http://www.w3.org/2000/svg">
<path fill-rule="evenodd" clip-rule="evenodd" d="M17.5 35C27.165 35 35 27.165 35 17.5C35 7.83502 27.165 0 17.5 0C7.83502 0 0 7.83502 0 17.5C0 27.165 7.83502 35 17.5 35ZM11.6342 7C12.5694 8.08714 14.5333 10.6342 14.9074 12.1251C15.2814 13.616 14.128 14.9206 13.5046 15.3865C14.7515 17.0949 20 21.5 20 21.5L22 19.5C24 18 28 22.5616 28 23.3071C28 24.2389 24.7268 32.6255 13.5046 20.5116C4.52679 10.8205 8.51692 7.46592 11.6342 7Z" fill="#147578"/>
</svg>
