<svg width="35" height="35" viewBox="0 0 35 35" fill="none" xmlns="http://www.w3.org/2000/svg">
<path fill-rule="evenodd" clip-rule="evenodd" d="M35 17.5C35 27.165 27.165 35 17.5 35C7.83502 35 0 27.165 0 17.5C0 7.83502 7.83502 0 17.5 0C27.165 0 35 7.83502 35 17.5ZM25.8166 13.2347C26.6459 13.1369 27.4558 12.9151 28.2193 12.5768C27.6579 13.417 26.9509 14.1502 26.1317 14.7418C26.1398 14.9208 26.1438 15.1015 26.1438 15.2827C26.1438 20.8108 21.9362 27.1847 14.2422 27.1847C11.9688 27.1871 9.74282 26.5346 7.83057 25.3052C8.15718 25.3441 8.49097 25.3638 8.82788 25.3638C10.7116 25.3669 12.5416 24.7362 14.0235 23.5732C12.1926 23.5392 10.6481 22.3297 10.1159 20.6683C10.3711 20.7169 10.6328 20.7428 10.903 20.7428C11.2752 20.7433 11.6458 20.6938 12.0048 20.5959C10.0916 20.2119 8.64913 18.5214 8.64913 16.4946L8.64945 16.4416C9.22994 16.7653 9.87963 16.9449 10.5439 16.9654C9.42216 16.2154 8.68314 14.9346 8.68314 13.4837C8.68206 12.7448 8.87759 12.0189 9.24965 11.3805C11.3129 13.912 14.3953 15.5772 17.8717 15.7516C17.8 15.4452 17.7629 15.1261 17.7629 14.7982C17.7629 12.4885 19.6362 10.6152 21.9459 10.6152C22.5182 10.6145 23.0846 10.7313 23.61 10.9584C24.1353 11.1856 24.6084 11.5182 24.9999 11.9357C25.9367 11.7514 26.8351 11.4082 27.6562 10.921C27.3441 11.8899 26.6903 12.7123 25.8166 13.2347Z" fill="#147578"/>
</svg>
