<svg width="35" height="35" viewBox="0 0 35 35" fill="none" xmlns="http://www.w3.org/2000/svg">
<path fill-rule="evenodd" clip-rule="evenodd" d="M17.5 35C27.165 35 35 27.165 35 17.5C35 7.83502 27.165 0 17.5 0C7.83502 0 0 7.83502 0 17.5C0 27.165 7.83502 35 17.5 35ZM24 7C24 5.34315 22.6569 4 21 4C19.3431 4 18 5.34315 18 7V14.5C18 16.1569 19.3431 17.5 21 17.5C22.6569 17.5 24 16.1569 24 14.5V7ZM7.00015 11C5.3433 11 4.00015 12.3431 4.00015 14C4.00015 15.6569 5.3433 17 7.00015 17H14.5001C16.157 17 17.5001 15.6569 17.5001 14C17.5001 12.3431 16.157 11 14.5001 11H7.00015ZM16.5182 20.9973C16.5182 19.3405 15.1751 17.9973 13.5182 17.9973C11.8614 17.9973 10.5182 19.3405 10.5182 20.9973L10.5182 28.4973C10.5182 30.1542 11.8614 31.4973 13.5182 31.4973C15.1751 31.4973 16.5182 30.1542 16.5182 28.4973L16.5182 20.9973ZM20.0182 18.4973C18.3614 18.4973 17.0182 19.8405 17.0182 21.4973C17.0182 23.1542 18.3614 24.4973 20.0182 24.4973L27.5182 24.4973C29.1751 24.4973 30.5182 23.1542 30.5182 21.4973C30.5182 19.8405 29.1751 18.4973 27.5182 18.4973H20.0182ZM16.9546 7.97729C16.9845 7.82279 17.0001 7.66322 17.0001 7.5C17.0001 6.11929 15.8809 5 14.5001 5C13.1194 5 12.0001 6.11929 12.0001 7.5C12.0001 8.31875 12.3937 9.04558 13.002 9.50159L12.9995 9.50318L13.0131 9.50982C13.255 9.68916 13.5306 9.82585 13.8285 9.90874L16.966 11.4437L16.9546 7.97729ZM17.5182 27.9973C17.5182 27.8341 17.5339 27.6745 17.5637 27.52L17.5524 24.0536L20.6899 25.5886C20.9878 25.6715 21.2633 25.8082 21.5053 25.9875L21.5189 25.9941L21.5163 25.9957C22.1246 26.4517 22.5182 27.1786 22.5182 27.9973C22.5182 29.378 21.3989 30.4973 20.0182 30.4973C18.6375 30.4973 17.5182 29.378 17.5182 27.9973ZM27.6307 16.5562C27.7877 16.5451 27.9459 16.5189 28.1035 16.4767C29.4372 16.1193 30.2287 14.7485 29.8713 13.4148C29.514 12.0811 28.1431 11.2897 26.8095 11.647C26.0186 11.859 25.4184 12.4272 25.1354 13.1328L25.1332 13.1308L25.1303 13.1456C25.0197 13.4258 24.959 13.7273 24.956 14.0365L24.2854 17.4644L27.6307 16.5562ZM6.41481 19.0206C6.57248 18.9784 6.73066 18.9522 6.88762 18.9411L10.233 18.0329L9.56237 21.4608C9.5594 21.77 9.49869 22.0715 9.38808 22.3517L9.38518 22.3665L9.383 22.3645C9.09996 23.0701 8.49976 23.6384 7.70891 23.8503C6.37524 24.2076 5.0044 23.4162 4.64705 22.0825C4.28969 20.7488 5.08115 19.378 6.41481 19.0206Z" fill="white"/>
</svg>
