<svg width="882" height="1077" viewBox="0 0 882 1077" fill="none" xmlns="http://www.w3.org/2000/svg">
<g filter="url(#filter0_d_848_8)">
<path d="M142.147 35.6395C73.9516 35.6395 45.1818 60.3892 40.9196 124.32C36.6574 188.251 80.4972 1001.32 80.4972 1001.32H811.821C874.812 983.104 877.692 933.648 872.048 800.176C859.804 510.673 821.92 389.157 780.847 124.32C760.137 87.6053 755.636 63.0904 674.16 59.9529L142.147 35.6395Z" fill="#147578"/>
</g>
<g filter="url(#filter1_d_848_8)">
<path d="M0 834.603C0 834.603 60.6228 214.153 75.4822 162.675C90.3416 111.197 122.412 78.6917 163.042 62.6004C203.671 46.509 475.226 9.92668 704.194 0.5C763.206 21.4825 815.459 7.00731 821.246 162.675C827.033 318.342 835.63 627.136 834.833 804.223C832.422 882.905 817.627 914.215 765.389 945.4C448.825 1014.15 214.74 1093.96 126.81 1061.56C37.0916 1028.49 0.658255 982.881 0 834.603Z" fill="white"/>
</g>
<path d="M744.115 81.9829L740.247 81.9829C732.379 81.9829 726 75.6044 726 67.736L726 62.5467C726 57.5444 730.055 53.4891 735.058 53.4891V53.4891C740.06 53.4891 744.115 57.5444 744.115 62.5467L744.115 81.9829Z" fill="#42BD81"/>
<path d="M742.287 97.5077L742.287 89.771C742.287 82.6707 748.043 76.9148 755.144 76.9148L757.704 76.9148C763.39 76.9148 768 81.5247 768 87.2112V87.2112C768 92.8978 763.39 97.5077 757.704 97.5077L742.287 97.5077Z" fill="#61B762"/>
<defs>
<filter id="filter0_d_848_8" x="40.6278" y="35.6395" width="841.372" height="973.684" filterUnits="userSpaceOnUse" color-interpolation-filters="sRGB">
<feFlood flood-opacity="0" result="BackgroundImageFix"/>
<feColorMatrix in="SourceAlpha" type="matrix" values="0 0 0 0 0 0 0 0 0 0 0 0 0 0 0 0 0 0 127 0" result="hardAlpha"/>
<feOffset dx="4" dy="4"/>
<feGaussianBlur stdDeviation="2"/>
<feComposite in2="hardAlpha" operator="out"/>
<feColorMatrix type="matrix" values="0 0 0 0 0.0784314 0 0 0 0 0.458824 0 0 0 0 0.470588 0 0 0 0.2 0"/>
<feBlend mode="normal" in2="BackgroundImageFix" result="effect1_dropShadow_848_8"/>
<feBlend mode="normal" in="SourceGraphic" in2="effect1_dropShadow_848_8" result="shape"/>
</filter>
<filter id="filter1_d_848_8" x="0" y="0.5" width="842.885" height="1076.5" filterUnits="userSpaceOnUse" color-interpolation-filters="sRGB">
<feFlood flood-opacity="0" result="BackgroundImageFix"/>
<feColorMatrix in="SourceAlpha" type="matrix" values="0 0 0 0 0 0 0 0 0 0 0 0 0 0 0 0 0 0 127 0" result="hardAlpha"/>
<feOffset dx="4" dy="4"/>
<feGaussianBlur stdDeviation="2"/>
<feComposite in2="hardAlpha" operator="out"/>
<feColorMatrix type="matrix" values="0 0 0 0 0.0784314 0 0 0 0 0.458824 0 0 0 0 0.470588 0 0 0 0.2 0"/>
<feBlend mode="normal" in2="BackgroundImageFix" result="effect1_dropShadow_848_8"/>
<feBlend mode="normal" in="SourceGraphic" in2="effect1_dropShadow_848_8" result="shape"/>
</filter>
</defs>
</svg>
