<svg width="1280" height="5743" viewBox="0 0 1280 5743" fill="none" xmlns="http://www.w3.org/2000/svg">
<rect x="0.00244141" y="4911" width="1280" height="832" fill="url(#paint0_linear_727_27)"/>
<path d="M1.00244 5019C296.502 4952.5 -487.775 6100.96 655.003 5438C1254 5090.5 -425.488 5160.19 245.503 5037.5C916.495 4914.81 1525.5 4993 1046.84 5469.69C867.146 5648.64 1151.5 5643 1281 5594.88" stroke="#147578" stroke-opacity="0.6"/>
<rect x="0.00244141" y="4079" width="1280" height="832" fill="url(#paint1_linear_727_27)"/>
<path d="M0.00244141 4221C26.3358 4315.66 239.151 4543.7 201.002 4412.5C73.5024 3974 607.002 4454.71 648.502 4375.5C690.002 4296.29 1312 4305.86 1278.5 4545.5C1245 4785.14 916.502 4792.76 802.002 4587.5C742.93 4481.6 701.002 4797.5 0.00244141 4908.5" stroke="#147578" stroke-opacity="0.6" stroke-linecap="round" stroke-linejoin="round"/>
<rect x="0.00244141" y="3247" width="1280" height="832" fill="url(#paint2_linear_727_27)"/>
<path d="M-3.49756 3346C-27.3309 3402 -40.9976 3524.1 95.0024 3564.5C265.002 3615 463.502 3427 546.002 3435C628.502 3443 639.002 3441 777.502 3544.5C916.002 3648 1379.5 3406 1114.5 3733.5C849.502 4061 644.502 4021 566.002 4003.5C487.502 3986 620.002 3790 725.502 3710.5C831.002 3631 625.502 3532 442.002 3652C258.502 3772 249.502 3966 107.002 4003.5C-6.99756 4033.5 -61.1642 4020.33 -73.9976 4010" stroke="#147578" stroke-opacity="0.6" stroke-linecap="round" stroke-linejoin="round"/>
<rect x="0.238281" y="1583" width="1280" height="832" fill="url(#paint3_linear_727_27)"/>
<rect x="0.238281" y="2415" width="1280" height="832" fill="url(#paint4_linear_727_27)"/>
<path d="M-0.497559 1735C227.002 1880.5 266.95 1918.79 507.238 1910C1286.74 1881.5 1486.6 2107.6 1286.74 2149C516.738 2308.5 243.238 1997.5 -10.7617 2101C-223.599 2187.73 -84.6049 2234.15 -26.7618 2334C104.738 2561 200.738 2368 1255.74 2507C2033.61 2609.49 1100.74 3047.5 0.238235 2824" stroke="#147578" stroke-opacity="0.6"/>
<rect x="0.00244141" y="751" width="1280" height="832" fill="url(#paint5_linear_727_27)"/>
<path d="M0.00244141 888.504C26.2947 983.163 112.327 1179.16 246.118 1205.86C413.357 1239.24 746.836 1090.28 788.271 1011.06C829.706 931.848 1306.96 1008.07 1273.51 1247.71C1240.06 1487.34 941.531 1515.24 827.21 1309.98C768.23 1204.09 651.502 1669.5 0.00244141 1616.5" stroke="#147578" stroke-opacity="0.6" stroke-linecap="round" stroke-linejoin="round"/>
<rect x="0.00244141" y="-81" width="1280" height="832" fill="url(#paint6_linear_727_27)"/>
<path d="M0.00244141 133C175.129 161.794 805.502 212 654.003 552C518.242 856.679 -419.989 307.687 251.002 185C921.994 62.3133 1198.34 305.763 1045.84 583.686C923.846 806.024 1150.5 757 1280 708.876" stroke="#147578" stroke-opacity="0.6"/>
<defs>
<linearGradient id="paint0_linear_727_27" x1="1280" y1="5327" x2="0.00243607" y2="5327" gradientUnits="userSpaceOnUse">
<stop stop-color="#C7F4E1"/>
<stop offset="1" stop-color="white"/>
</linearGradient>
<linearGradient id="paint1_linear_727_27" x1="1280" y1="4495" x2="0.00243607" y2="4495" gradientUnits="userSpaceOnUse">
<stop stop-color="#C7F4E1"/>
<stop offset="1" stop-color="white"/>
</linearGradient>
<linearGradient id="paint2_linear_727_27" x1="1280" y1="3663" x2="0.00243607" y2="3663" gradientUnits="userSpaceOnUse">
<stop stop-color="#C7F4E1"/>
<stop offset="1" stop-color="white"/>
</linearGradient>
<linearGradient id="paint3_linear_727_27" x1="1280.24" y1="1999" x2="0.238276" y2="1999" gradientUnits="userSpaceOnUse">
<stop stop-color="#C7F4E1"/>
<stop offset="1" stop-color="white"/>
</linearGradient>
<linearGradient id="paint4_linear_727_27" x1="1280.24" y1="2831" x2="0.238276" y2="2831" gradientUnits="userSpaceOnUse">
<stop stop-color="#C7F4E1"/>
<stop offset="1" stop-color="white"/>
</linearGradient>
<linearGradient id="paint5_linear_727_27" x1="1280" y1="1167" x2="0.00243607" y2="1167" gradientUnits="userSpaceOnUse">
<stop stop-color="#C7F4E1"/>
<stop offset="1" stop-color="white"/>
</linearGradient>
<linearGradient id="paint6_linear_727_27" x1="1280" y1="335" x2="0.00243607" y2="335" gradientUnits="userSpaceOnUse">
<stop stop-color="#C7F4E1"/>
<stop offset="1" stop-color="white"/>
</linearGradient>
</defs>
</svg>
