<svg width="64" height="64" viewBox="0 0 64 64" fill="none" xmlns="http://www.w3.org/2000/svg">
<path d="M31.7279 32L28.1924 35.5355C23.1156 40.6123 23.1156 48.8435 28.1924 53.9203L31.0208 56.7487C34.5355 60.2635 40.234 60.2635 43.7487 56.7487V56.7487C47.2634 53.234 47.2634 47.5355 43.7487 44.0208L31.7279 32Z" fill="#61B762" fill-opacity="0.5"/>
<path d="M31.1127 31.7279L27.5772 28.1924C22.5003 23.1156 14.2692 23.1156 9.19238 28.1924L6.36395 31.0208C2.84923 34.5355 2.84923 40.234 6.36395 43.7487V43.7487C9.87867 47.2635 15.5772 47.2635 19.0919 43.7487L31.1127 31.7279Z" fill="#42BD81" fill-opacity="0.5"/>
<path d="M31.3848 31.1125L34.9203 27.577C39.9971 22.5002 39.9971 14.2691 34.9203 9.19224L32.0919 6.36381C28.5772 2.84909 22.8787 2.84909 19.364 6.36381V6.36381C15.8492 9.87853 15.8492 15.577 19.364 19.0917L31.3848 31.1125Z" fill="#61B762" fill-opacity="0.5"/>
<path d="M32 31.3848L35.5355 34.9203C40.6123 39.9971 48.8435 39.9971 53.9203 34.9203L56.7487 32.0919C60.2635 28.5772 60.2635 22.8787 56.7487 19.364V19.364C53.234 15.8492 47.5355 15.8492 44.0208 19.364L32 31.3848Z" fill="#42BD81" fill-opacity="0.5"/>
</svg>
